<?xml version="1.0" encoding="UTF-8" standalone="no"?>
<svg
   viewBox="0 0 576 512"
   version="1.1"
   id="svg4"
   sodipodi:docname="folder-open.svg"
   inkscape:version="1.2.2 (b0a8486541, 2022-12-01)"
   xmlns:inkscape="http://www.inkscape.org/namespaces/inkscape"
   xmlns:sodipodi="http://sodipodi.sourceforge.net/DTD/sodipodi-0.dtd"
   xmlns="http://www.w3.org/2000/svg"
   xmlns:svg="http://www.w3.org/2000/svg">
  <defs
     id="defs8" />
  <sodipodi:namedview
     id="namedview6"
     pagecolor="#ffffff"
     bordercolor="#666666"
     borderopacity="1.0"
     inkscape:showpageshadow="2"
     inkscape:pageopacity="0.0"
     inkscape:pagecheckerboard="0"
     inkscape:deskcolor="#d1d1d1"
     showgrid="false"
     inkscape:zoom="1.6503906"
     inkscape:cx="287.81065"
     inkscape:cy="256.30296"
     inkscape:window-width="1872"
     inkscape:window-height="1011"
     inkscape:window-x="48"
     inkscape:window-y="32"
     inkscape:window-maximized="1"
     inkscape:current-layer="svg4" />
  <!--!Font Awesome Free 6.6.0 by @fontawesome - https://fontawesome.com License - https://fontawesome.com/license/free Copyright 2024 Fonticons, Inc.-->
  <path
     d="M384 480l48 0c11.4 0 21.9-6 27.6-15.9l112-192c5.8-9.9 5.8-22.1 .1-32.1S555.5 224 544 224l-400 0c-11.4 0-21.9 6-27.6 15.9L48 357.1 48 96c0-8.8 7.2-16 16-16l117.5 0c4.2 0 8.3 1.7 11.3 4.7l26.5 26.5c21 21 49.5 32.8 79.2 32.8L416 144c8.8 0 16 7.2 16 16l0 32 48 0 0-32c0-35.3-28.7-64-64-64L298.5 96c-17 0-33.3-6.7-45.3-18.7L226.7 50.7c-12-12-28.3-18.7-45.3-18.7L64 32C28.7 32 0 60.7 0 96L0 416c0 35.3 28.7 64 64 64l23.7 0L384 480z"
     id="path2"
     style="fill:#ff6f00;fill-opacity:1" />
</svg>
